<?xml version="1.0" standalone="no"?>
<!DOCTYPE svg PUBLIC "-//W3C//DTD SVG 20010904//EN"
 "http://www.w3.org/TR/2001/REC-SVG-20010904/DTD/svg10.dtd">
<svg version="1.0" xmlns="http://www.w3.org/2000/svg"
 width="800.000000pt" height="157.000000pt" viewBox="0 0 800.000000 157.000000"
 preserveAspectRatio="xMidYMid meet">

<g transform="translate(0.000000,157.000000) scale(0.100000,-0.100000)"
fill="#000000" stroke="none">
<path d="M1520 1087 c0 -57 -3 -152 -6 -210 l-7 -106 -31 -3 c-42 -4 -46 -35
-8 -71 25 -24 37 -28 73 -25 l44 3 -1 232 c0 230 -1 233 -24 258 -13 14 -27
25 -32 25 -4 0 -8 -47 -8 -103z"/>
<path d="M6114 1161 c-5 -25 -12 -30 -38 -33 -28 -3 -31 -7 -34 -40 -4 -42 -2
-43 82 -32 42 6 47 9 56 42 10 38 -2 62 -43 83 -14 8 -18 5 -23 -20z"/>
<path d="M6270 1147 l0 -47 -40 0 c-22 0 -40 -4 -40 -8 0 -14 35 -42 53 -42
15 0 17 -16 17 -140 l0 -140 -35 0 c-30 0 -35 -3 -35 -23 0 -13 13 -36 29 -51
23 -22 36 -27 67 -24 l39 3 3 164 c2 121 -1 167 -10 179 -10 12 -10 16 0 19 7
3 12 23 12 52 0 39 -5 52 -30 76 l-30 29 0 -47z"/>
<path d="M6445 981 l-7 -210 -32 -3 c-41 -4 -46 -32 -10 -69 22 -23 36 -29 70
-29 39 0 43 2 49 31 4 17 4 123 0 237 -7 190 -9 209 -28 230 -11 12 -24 22
-28 22 -3 0 -10 -94 -14 -209z"/>
<path d="M1005 984 c-30 -115 -54 -188 -63 -191 -11 -5 -11 -7 0 -14 8 -5 -12
-9 -49 -9 -60 0 -63 -1 -63 -24 0 -15 12 -34 31 -50 24 -21 41 -26 82 -26 29
0 57 4 63 8 6 4 30 88 53 187 24 99 47 196 52 215 7 30 5 38 -18 62 -15 15
-30 28 -33 28 -4 0 -29 -84 -55 -186z"/>
<path d="M540 1150 c0 -5 9 -47 19 -92 11 -46 24 -109 31 -140 13 -68 35 -78
46 -21 10 53 -30 214 -60 242 -24 23 -36 27 -36 11z"/>
<path d="M815 1137 c4 -13 18 -79 33 -147 15 -68 32 -125 39 -127 18 -6 37 74
24 106 -6 14 -17 52 -25 85 -13 53 -47 106 -68 106 -5 0 -6 -10 -3 -23z"/>
<path d="M3350 1097 c0 -46 1 -47 30 -47 22 0 30 5 30 18 0 10 -13 31 -30 47
l-30 29 0 -47z"/>
<path d="M741 1049 c-5 -13 -22 -75 -37 -137 -16 -70 -32 -116 -41 -119 -12
-5 -12 -7 -1 -14 8 -5 -11 -9 -49 -9 -60 0 -61 0 -55 -24 4 -14 17 -36 30 -51
21 -24 28 -26 85 -23 l62 3 30 120 30 120 -16 73 c-19 85 -25 93 -38 61z"/>
<path d="M1805 1020 c-6 -28 -9 -30 -55 -30 -60 0 -70 -14 -70 -100 0 -64 18
-102 51 -108 12 -2 16 9 18 55 1 32 7 63 12 70 6 6 34 13 62 15 51 3 52 4 55
37 3 26 -3 40 -24 62 -35 36 -41 36 -49 -1z"/>
<path d="M3418 1023 c-2 -23 -9 -29 -34 -31 l-31 -3 -6 -85 c-5 -84 -1 -127
12 -120 3 2 15 0 26 -5 13 -5 0 -8 -42 -8 -76 -1 -80 -13 -22 -65 38 -35 44
-37 97 -34 l57 3 3 35 c2 28 -3 41 -28 65 -27 26 -30 35 -30 87 0 57 0 58 29
58 25 0 29 4 34 37 6 32 2 42 -20 65 -33 35 -41 35 -45 1z"/>
<path d="M4584 1033 c3 -10 17 -62 32 -116 15 -54 32 -96 37 -94 23 7 28 61
10 117 -18 58 -36 86 -66 102 -16 8 -18 7 -13 -9z"/>
<path d="M4782 983 c-13 -38 -35 -101 -49 -140 l-26 -73 -54 0 c-34 0 -52 4
-48 10 3 6 1 10 -4 10 -17 0 -13 -51 5 -71 14 -15 14 -22 0 -70 l-16 -53 27
-28 c24 -25 34 -28 72 -26 l44 3 34 110 c18 61 49 161 69 224 l35 114 -28 29
c-15 15 -29 28 -32 28 -4 0 -16 -30 -29 -67z"/>
<path d="M5430 1040 c0 -5 5 -10 11 -10 5 0 7 5 4 10 -3 6 -8 10 -11 10 -2 0
-4 -4 -4 -10z"/>
<path d="M5520 1015 c0 -30 -5 -37 -40 -55 -36 -18 -40 -24 -40 -59 0 -21 -3
-59 -6 -85 -6 -42 -9 -46 -34 -46 -20 0 -29 -6 -34 -22 -8 -31 43 -78 83 -78
59 0 61 4 61 106 l0 95 34 20 c30 17 35 26 39 67 4 41 1 50 -22 69 -35 31 -41
29 -41 -12z"/>
<path d="M2688 929 c2 -60 0 -118 -4 -127 -4 -9 -6 -20 -6 -24 1 -5 -11 -8
-27 -8 -42 0 -47 -32 -10 -71 24 -26 34 -30 71 -27 l43 3 0 147 0 148 -35 35
-35 35 3 -111z"/>
<path d="M4428 905 l3 -135 -35 0 c-31 0 -36 -3 -36 -23 0 -13 13 -36 29 -51
23 -22 36 -27 67 -24 l39 3 3 130 c1 72 0 140 -3 152 -5 22 -52 83 -63 83 -4
0 -6 -61 -4 -135z"/>
<path d="M5268 922 c5 -155 8 -151 -136 -154 l-117 -3 -5 -88 c-5 -84 -4 -88
21 -115 24 -25 32 -28 70 -23 l44 6 5 60 5 60 67 3 c55 2 70 7 91 28 32 32 41
83 32 181 -7 70 -11 80 -44 115 l-36 39 3 -109z"/>
<path d="M7090 980 l0 -50 -40 0 -41 0 23 -30 c19 -27 27 -30 75 -30 l53 0 0
48 c0 50 -17 84 -51 102 -18 10 -19 7 -19 -40z"/>
<path d="M1348 945 l5 -75 -87 0 -86 0 0 -29 c0 -16 7 -35 17 -42 19 -17 115
-20 125 -5 5 7 8 4 8 -6 0 -16 -11 -18 -95 -18 -57 0 -95 4 -95 10 0 6 -4 10
-10 10 -31 0 24 -81 72 -106 34 -18 132 -21 183 -6 27 8 30 12 27 43 -2 19
-10 41 -18 50 -19 21 -18 29 6 29 18 0 20 7 20 60 0 66 -14 102 -53 138 l-24
23 5 -76z"/>
<path d="M2136 1005 c5 -11 9 -59 9 -107 0 -119 -9 -128 -138 -128 -59 0 -97
4 -105 12 -22 22 -12 -5 14 -39 41 -55 80 -73 152 -73 112 0 152 43 152 164 0
79 -16 120 -60 161 -25 22 -31 25 -24 10z"/>
<path d="M3020 994 c6 -14 10 -47 10 -74 l0 -49 -87 -3 c-87 -3 -88 -3 -85
-28 4 -40 27 -54 88 -57 95 -3 73 -13 -30 -13 -53 0 -95 4 -92 8 2 4 -4 9 -15
9 -10 1 -19 -1 -19 -5 0 -16 64 -83 93 -99 36 -18 136 -21 180 -4 34 13 37 56
7 94 l-20 26 22 3 c17 2 24 11 26 32 7 58 -9 116 -40 151 -36 41 -51 45 -38 9z"/>
<path d="M3739 1001 c18 -33 14 -168 -6 -202 l-17 -29 -101 1 c-65 1 -91 4
-75 9 24 8 23 8 -7 9 -40 1 -41 -11 -9 -54 34 -44 83 -65 151 -65 114 0 149
44 143 179 -3 91 -23 137 -69 162 -19 9 -19 9 -10 -10z"/>
<path d="M5835 1005 c13 -33 17 -158 6 -187 -7 -19 -18 -28 -33 -28 -19 0 -20
-2 -8 -10 10 -7 -17 -10 -87 -10 -87 0 -104 3 -112 18 -10 16 -10 16 -11 0 0
-22 55 -85 91 -104 38 -19 144 -18 178 2 41 25 54 52 59 130 6 88 -8 130 -55
175 -25 24 -34 28 -28 14z"/>
<path d="M6774 1000 c4 -14 9 -49 13 -77 l6 -53 -92 0 -91 0 0 -29 c0 -16 7
-35 16 -42 19 -16 113 -22 130 -8 7 5 11 3 11 -6 0 -12 -18 -15 -99 -15 -72 0
-97 3 -92 12 4 6 3 8 -4 4 -6 -3 -16 2 -22 11 -9 15 -10 14 -4 -7 10 -40 50
-86 90 -105 40 -19 126 -22 179 -7 27 8 30 12 27 43 -2 19 -10 41 -18 50 -19
22 -18 29 7 29 20 0 21 4 17 75 -3 72 -5 77 -42 113 -35 34 -38 35 -32 12z"/>
<path d="M7190 1001 c0 -17 59 -61 126 -94 62 -31 74 -34 90 -23 16 12 11 17
-61 54 -104 52 -155 73 -155 63z"/>
<path d="M1196 984 c-9 -8 -16 -24 -16 -35 0 -16 7 -19 50 -19 46 0 50 2 50
25 0 40 -54 59 -84 29z"/>
<path d="M2878 989 c-10 -5 -18 -21 -18 -34 0 -23 4 -25 50 -25 43 0 50 3 50
19 0 41 -44 62 -82 40z"/>
<path d="M6626 984 c-9 -8 -16 -24 -16 -35 0 -16 7 -19 50 -19 46 0 50 2 50
25 0 40 -54 59 -84 29z"/>
<path d="M1967 972 c-12 -13 -17 -37 -17 -76 0 -67 22 -113 54 -114 19 0 21 5
18 54 -3 47 -1 56 22 77 28 26 33 46 14 65 -18 18 -73 14 -91 -6z"/>
<path d="M3230 978 c0 -16 19 -38 33 -38 4 0 7 10 5 22 -3 25 -38 39 -38 16z"/>
<path d="M3571 976 c-21 -25 -25 -118 -8 -153 9 -17 15 -32 12 -34 -2 -2 13
-4 33 -5 21 -1 33 0 27 2 -6 2 -9 30 -7 65 3 53 7 61 28 69 28 11 29 18 8 48
-18 26 -74 31 -93 8z"/>
<path d="M5102 974 c-19 -13 -22 -24 -22 -91 0 -66 2 -75 20 -80 11 -3 17 -9
15 -13 -3 -5 9 -8 27 -8 18 1 27 3 21 5 -8 3 -13 23 -13 53 0 40 4 52 25 68
62 49 -7 113 -73 66z"/>
<path d="M5666 974 c-23 -23 -22 -142 2 -170 10 -11 25 -21 35 -21 14 0 17 10
17 54 0 45 4 58 25 77 27 26 31 46 13 64 -17 17 -74 15 -92 -4z"/>
<path d="M5910 982 c0 -10 33 -42 43 -42 4 0 7 11 7 25 0 20 -5 25 -25 25 -14
0 -25 -4 -25 -8z"/>
<path d="M6037 938 c-4 -29 -7 -74 -7 -100 0 -32 -4 -48 -12 -48 -9 0 -8 -4 2
-10 11 -7 5 -10 -22 -10 -33 0 -38 -3 -38 -23 0 -13 13 -36 29 -51 23 -22 36
-27 67 -24 l39 3 2 50 c2 28 5 83 9 123 l6 72 39 0 c39 0 40 1 37 33 l-3 32
-71 3 -71 3 -6 -53z"/>
<path d="M2338 964 c-27 -14 -28 -18 -28 -94 0 -57 -4 -80 -12 -80 -9 0 -8 -4
2 -10 11 -7 5 -10 -22 -10 -33 0 -38 -3 -38 -23 0 -13 13 -36 29 -51 23 -22
36 -27 67 -24 l39 3 3 102 c3 97 4 104 27 119 41 27 28 85 -19 84 -12 -1 -33
-8 -48 -16z"/>
<path d="M2528 964 c-27 -14 -28 -18 -28 -94 l0 -80 -32 -1 -33 -2 35 -7 35
-7 -36 -2 c-50 -1 -56 -29 -18 -71 25 -27 35 -31 71 -28 l43 3 3 108 c3 104 4
108 27 117 17 6 25 17 25 33 0 46 -40 60 -92 31z"/>
<path d="M4083 968 c-27 -13 -33 -35 -33 -125 0 -73 0 -73 -27 -73 -23 0 -25
2 -13 11 12 9 12 10 1 7 -8 -3 -19 -17 -24 -32 -8 -24 -5 -32 19 -57 25 -26
35 -30 74 -27 l45 3 3 109 c2 99 4 109 23 113 16 5 19 12 17 42 -3 32 -6 36
-33 38 -16 1 -40 -3 -52 -9z"/>
<path d="M4273 968 c-21 -10 -23 -17 -23 -104 l0 -93 -37 -3 c-49 -4 -55 -30
-17 -69 21 -22 37 -29 64 -29 54 0 60 12 60 123 0 90 2 99 20 104 20 5 26 35
14 67 -7 18 -48 20 -81 4z"/>
<path d="M7490 901 c0 -17 -19 -31 -92 -67 -51 -25 -106 -46 -123 -46 -21 1
-25 -2 -15 -8 11 -7 4 -10 -23 -10 -35 0 -38 -2 -32 -22 10 -33 34 -68 50 -74
17 -7 285 127 299 149 13 21 -7 62 -41 85 -21 13 -23 13 -23 -7z"/>
<path d="M7086 831 c-4 -5 -7 -21 -8 -35 -2 -21 -8 -26 -29 -26 -38 0 -44 -33
-12 -70 18 -22 33 -30 58 -30 58 0 65 7 65 64 0 44 -4 56 -28 79 -30 29 -38
32 -46 18z"/>
<path d="M1799 798 c-1 -7 -1 -16 0 -20 0 -5 -35 -8 -80 -8 -44 0 -78 4 -75 8
2 4 -4 9 -15 9 -18 2 -18 0 -4 -26 17 -35 68 -79 99 -87 12 -3 51 -4 86 -2
l65 3 -3 40 c-3 40 -21 69 -54 86 -13 7 -18 6 -19 -3z"/>
<path d="M588 783 c7 -3 16 -2 19 1 4 3 -2 6 -13 5 -11 0 -14 -3 -6 -6z"/>
<path d="M828 783 c7 -3 16 -2 19 1 4 3 -2 6 -13 5 -11 0 -14 -3 -6 -6z"/>
<path d="M868 783 c7 -3 16 -2 19 1 4 3 -2 6 -13 5 -11 0 -14 -3 -6 -6z"/>
<path d="M1928 783 c7 -3 16 -2 19 1 4 3 -2 6 -13 5 -11 0 -14 -3 -6 -6z"/>
<path d="M2053 783 c9 -2 25 -2 35 0 9 3 1 5 -18 5 -19 0 -27 -2 -17 -5z"/>
<path d="M2858 783 c7 -3 16 -2 19 1 4 3 -2 6 -13 5 -11 0 -14 -3 -6 -6z"/>
<path d="M3658 783 c7 -3 16 -2 19 1 4 3 -2 6 -13 5 -11 0 -14 -3 -6 -6z"/>
<path d="M4188 783 c7 -3 16 -2 19 1 4 3 -2 6 -13 5 -11 0 -14 -3 -6 -6z"/>
<path d="M4368 783 c7 -3 16 -2 19 1 4 3 -2 6 -13 5 -11 0 -14 -3 -6 -6z"/>
<path d="M5398 783 c7 -3 16 -2 19 1 4 3 -2 6 -13 5 -11 0 -14 -3 -6 -6z"/>
<path d="M6198 783 c7 -3 16 -2 19 1 4 3 -2 6 -13 5 -11 0 -14 -3 -6 -6z"/>
<path d="M6598 783 c6 -2 18 -2 25 0 6 3 1 5 -13 5 -14 0 -19 -2 -12 -5z"/>
</g>
</svg>
